# xmcd CD database file
#
# Track frame offsets:
#	150
#	23062
#	47598
#	65345
#	85877
#	103250
#	123947
#	155584
#	175454
#
# Disc length: 2734 seconds
#
# Revision: 0
# Processed by: cddbd v1.5.2PL0 Copyright (c) Steve Scherf et al.
# Submitted via: CDex 1.77
#
DISCID=710aac09
DTITLE=Mark Guiliana - Beat Music!
DYEAR=2019
DGENRE=Jazz
TTITLE0=Girl
TTITLE1=Bones
TTITLE2=Bud
TTITLE3=Bullet
TTITLE4=Home
TTITLE5=Roast
TTITLE6=Human
TTITLE7=Bloom
TTITLE8=Stream
EXTD=YEAR: 2019
EXTT0=
EXTT1=
EXTT2=
EXTT3=
EXTT4=
EXTT5=
EXTT6=
EXTT7=
EXTT8=
PLAYORDER=
